<svg height='100px' width='100px'  fill="#ffffff" xmlns="http://www.w3.org/2000/svg" viewBox="0 0 64 64" x="0px" y="0px"><title>degree, graduate, graduation, diploma, education, graduation cap, graduation hat</title><g><path d="M56.63,24.38,32.34,33.1a1,1,0,0,1-.68,0L11,25.69V43.27a2.54,2.54,0,0,1,1.54,2.34V49.5a.79.79,0,0,1-.79.79H8.27a.79.79,0,0,1-.79-.79V45.61A2.56,2.56,0,0,1,9,43.27V25l-1.65-.59a1,1,0,0,1,0-1.89l24.29-8.72a1,1,0,0,1,.68,0l24.29,8.72A1,1,0,0,1,56.63,24.38ZM32.32,35.23a1,1,0,0,1-.64,0h0l-16.9-6.08V42.81A27.75,27.75,0,0,0,32,48.51a27.75,27.75,0,0,0,17.24-5.7V29.15l-16.9,6.08Z"></path></g></svg>