<?xml version="1.0" encoding="utf-8"?>
<!-- Generator: Adobe Illustrator 24.2.3, SVG Export Plug-In . SVG Version: 6.00 Build 0)  -->
<svg version="1.1" id="Layer_1" xmlns="http://www.w3.org/2000/svg" xmlns:xlink="http://www.w3.org/1999/xlink" x="0px" y="0px"
	 viewBox="0 0 120.123 18.241" style="enable-background:new 0 0 120.123 18.241;" xml:space="preserve">
<style type="text/css">
	.st0{fill:#0064FF;}
</style>
<g>
	<path class="st0" d="M0,0.521C0,0.364,0.104,0.26,0.26,0.26h3.622c0.157,0,0.261,0.104,0.261,0.261v13.603
		c0,0.104,0.052,0.155,0.156,0.155h4.326c0.157,0,0.26,0.104,0.26,0.261v3.179c0,0.157-0.104,0.261-0.26,0.261H0.26
		C0.104,17.98,0,17.876,0,17.719V0.521z"/>
	<path class="st0" d="M11.627,0.521c0-0.157,0.104-0.261,0.26-0.261h3.622c0.157,0,0.261,0.104,0.261,0.261v17.199
		c0,0.157-0.104,0.261-0.261,0.261h-3.622c-0.157,0-0.26-0.104-0.26-0.261V0.521z"/>
	<path class="st0" d="M19.189,14.983c-0.286-0.886-0.417-1.72-0.417-5.863c0-4.144,0.13-4.978,0.417-5.864
		C19.893,1.094,21.613,0,24.114,0s4.248,1.094,4.951,3.257c0.287,0.886,0.417,1.72,0.417,5.864c0,4.143-0.13,4.977-0.417,5.863
		c-0.703,2.163-2.449,3.258-4.951,3.258S19.893,17.146,19.189,14.983z M25.105,13.888c0.104-0.339,0.13-0.651,0.13-4.768
		s-0.026-4.43-0.13-4.769c-0.13-0.391-0.469-0.652-0.99-0.652c-0.495,0-0.834,0.261-0.964,0.652c-0.104,0.339-0.13,0.652-0.13,4.769
		s0.026,4.429,0.13,4.768c0.13,0.391,0.469,0.652,0.964,0.652C24.636,14.54,24.974,14.279,25.105,13.888z"/>
	<path class="st0" d="M32.492,0.521c0-0.157,0.104-0.261,0.26-0.261h3.779c0.209,0,0.313,0.104,0.365,0.261l2.737,9.877h0.13V0.521
		c0-0.157,0.104-0.261,0.261-0.261h3.075c0.157,0,0.261,0.104,0.261,0.261v17.199c0,0.157-0.104,0.261-0.261,0.261h-3.7
		c-0.208,0-0.313-0.104-0.365-0.261l-2.788-9.876h-0.157v9.876c0,0.157-0.104,0.261-0.26,0.261h-3.075
		c-0.157,0-0.26-0.104-0.26-0.261V0.521z"/>
	<path class="st0" d="M46.559,0.521c0-0.157,0.104-0.261,0.26-0.261h3.622c0.157,0,0.261,0.104,0.261,0.261v6.41
		c0,0.104,0.052,0.157,0.156,0.157h1.929c0.104,0,0.156-0.052,0.156-0.157v-6.41c0-0.157,0.104-0.261,0.261-0.261h3.622
		c0.157,0,0.26,0.104,0.26,0.261v17.199c0,0.157-0.104,0.261-0.26,0.261h-3.622c-0.157,0-0.261-0.104-0.261-0.261v-6.801
		c0-0.104-0.052-0.157-0.156-0.157h-1.929c-0.104,0-0.156,0.052-0.156,0.157v6.801c0,0.157-0.104,0.261-0.261,0.261H46.82
		c-0.157,0-0.26-0.104-0.26-0.261V0.521z"/>
	<path class="st0" d="M60.315,0.521c0-0.157,0.104-0.261,0.26-0.261h8.287c0.157,0,0.261,0.104,0.261,0.261V3.7
		c0,0.157-0.104,0.261-0.261,0.261h-4.248c-0.104,0-0.156,0.052-0.156,0.157v2.918c0,0.104,0.052,0.157,0.156,0.157h3.649
		c0.156,0,0.26,0.104,0.26,0.261v3.179c0,0.157-0.104,0.261-0.26,0.261h-3.649c-0.104,0-0.156,0.051-0.156,0.155v3.076
		c0,0.104,0.052,0.155,0.156,0.155h4.248c0.157,0,0.261,0.104,0.261,0.261v3.179c0,0.157-0.104,0.261-0.261,0.261h-8.287
		c-0.157,0-0.26-0.104-0.26-0.261V0.521z"/>
	<path class="st0" d="M75.451,0.521c0.052-0.157,0.13-0.261,0.313-0.261h4.04c0.182,0,0.286,0.104,0.313,0.261l3.805,17.199
		c0.052,0.183-0.052,0.261-0.209,0.261h-3.596c-0.183,0-0.286-0.104-0.313-0.261l-0.469-2.788h-3.153l-0.495,2.788
		c-0.026,0.157-0.104,0.261-0.287,0.261h-3.622c-0.157,0-0.234-0.104-0.208-0.261L75.451,0.521z M78.787,11.83l-0.964-5.758h-0.052
		l-1.043,5.758H78.787z"/>
	<path class="st0" d="M93.543,17.98c-0.183,0-0.287-0.078-0.339-0.234l-1.798-6.385h-0.6c-0.104,0-0.156,0.052-0.156,0.157v6.201
		c0,0.157-0.104,0.261-0.261,0.261h-3.622c-0.157,0-0.26-0.104-0.26-0.261V0.521c0-0.157,0.104-0.261,0.26-0.261h4.977
		c3.179,0,5.316,1.616,5.316,5.603c0,2.163-0.703,3.597-1.85,4.483l2.319,7.374c0.052,0.131,0,0.261-0.13,0.261H93.543z
		 M92.917,5.863c0-1.616-0.469-2.111-1.511-2.111h-0.6c-0.104,0-0.156,0.052-0.156,0.157v3.883c0,0.104,0.052,0.157,0.156,0.157h0.6
		C92.448,7.948,92.917,7.453,92.917,5.863z"/>
	<path class="st0" d="M102.996,17.98c-0.157,0-0.261-0.104-0.261-0.261V4.117c0-0.104-0.052-0.157-0.156-0.157H99.66
		c-0.157,0-0.261-0.104-0.261-0.261V0.521c0-0.157,0.104-0.261,0.261-0.261h10.293c0.157,0,0.26,0.104,0.26,0.261V3.7
		c0,0.157-0.104,0.261-0.26,0.261h-2.919c-0.104,0-0.157,0.052-0.157,0.157v13.602c0,0.157-0.104,0.261-0.26,0.261H102.996z"/>
	<g>
		<path class="st0" d="M116.12,13.3c-2.571,0-3.689-1.379-3.707-3.484c0-0.111,0.037-0.205,0.149-0.224l2.459-0.391
			c0.13-0.019,0.205,0.056,0.205,0.167c0.019,0.951,0.298,1.379,0.894,1.379c0.54,0,0.819-0.298,0.819-1.174
			c0-0.857-0.205-1.155-1.137-1.509l-0.764-0.298c-1.788-0.707-2.515-1.714-2.515-3.801c0-2.403,1.174-3.707,3.614-3.707
			c2.366,0,3.577,1.248,3.651,3.242c0,0.111-0.056,0.186-0.168,0.204l-2.347,0.355c-0.112,0.019-0.205-0.038-0.205-0.15
			c-0.019-0.745-0.298-1.099-0.82-1.099c-0.503,0-0.764,0.318-0.764,0.951c0,0.726,0.205,0.968,1.174,1.359l0.764,0.298
			c1.807,0.69,2.515,1.677,2.515,3.782C119.939,11.921,118.746,13.3,116.12,13.3z"/>
	</g>
	<g>
		<path class="st0" d="M119.871,17.982h-7.391c-0.139,0-0.252-0.113-0.252-0.252v-1.874c0-0.139,0.113-0.252,0.252-0.252h7.391
			c0.139,0,0.252,0.113,0.252,0.252v1.874C120.123,17.87,120.01,17.982,119.871,17.982z"/>
	</g>
</g>
</svg>
