<?xml version="1.0" encoding="utf-8"?>
<!-- Generator: Adobe Illustrator 24.2.3, SVG Export Plug-In . SVG Version: 6.00 Build 0)  -->
<svg version="1.1" id="Layer_1" xmlns="http://www.w3.org/2000/svg" xmlns:xlink="http://www.w3.org/1999/xlink" x="0px" y="0px"
	 viewBox="0 0 172.21 42.521" style="enable-background:new 0 0 172.21 42.521;" xml:space="preserve">
<style type="text/css">
	.st0{fill:#FFFFFF;}
</style>
<g>
	<g>
		<path class="st0" d="M52.086,16.532c0-0.157,0.104-0.261,0.26-0.261h3.622c0.157,0,0.261,0.104,0.261,0.261v13.603
			c0,0.104,0.052,0.155,0.156,0.155h4.326c0.157,0,0.26,0.104,0.26,0.261v3.179c0,0.157-0.104,0.261-0.26,0.261h-8.365
			c-0.157,0-0.26-0.104-0.26-0.261C52.086,33.73,52.086,16.532,52.086,16.532z"/>
		<path class="st0" d="M63.713,16.532c0-0.157,0.104-0.261,0.26-0.261h3.622c0.157,0,0.261,0.104,0.261,0.261v17.199
			c0,0.157-0.104,0.261-0.261,0.261h-3.622c-0.157,0-0.26-0.104-0.26-0.261V16.532z"/>
		<path class="st0" d="M71.276,30.995c-0.286-0.886-0.417-1.72-0.417-5.863c0-4.144,0.13-4.978,0.417-5.864
			c0.703-2.163,2.423-3.257,4.925-3.257c2.502,0,4.248,1.094,4.951,3.257c0.287,0.886,0.417,1.72,0.417,5.864
			c0,4.143-0.13,4.977-0.417,5.863c-0.703,2.163-2.449,3.258-4.951,3.258C73.699,34.253,71.979,33.158,71.276,30.995z M77.191,29.9
			c0.104-0.339,0.13-0.651,0.13-4.768s-0.026-4.43-0.13-4.769c-0.13-0.391-0.469-0.652-0.99-0.652c-0.495,0-0.834,0.261-0.964,0.652
			c-0.104,0.339-0.13,0.652-0.13,4.769s0.026,4.429,0.13,4.768c0.13,0.391,0.469,0.652,0.964,0.652
			C76.722,30.552,77.061,30.291,77.191,29.9z"/>
		<path class="st0" d="M84.578,16.532c0-0.157,0.104-0.261,0.26-0.261h3.779c0.209,0,0.313,0.104,0.365,0.261l2.737,9.877h0.13
			v-9.877c0-0.157,0.104-0.261,0.261-0.261h3.075c0.157,0,0.261,0.104,0.261,0.261v17.199c0,0.157-0.104,0.261-0.261,0.261h-3.7
			c-0.208,0-0.313-0.104-0.365-0.261l-2.788-9.876h-0.157v9.876c0,0.157-0.104,0.261-0.26,0.261H84.84
			c-0.157,0-0.26-0.104-0.26-0.261V16.532H84.578z"/>
		<path class="st0" d="M98.646,16.532c0-0.157,0.104-0.261,0.26-0.261h3.622c0.157,0,0.261,0.104,0.261,0.261v6.41
			c0,0.104,0.052,0.157,0.156,0.157h1.929c0.104,0,0.156-0.052,0.156-0.157v-6.41c0-0.157,0.104-0.261,0.261-0.261h3.622
			c0.157,0,0.26,0.104,0.26,0.261v17.199c0,0.157-0.104,0.261-0.26,0.261h-3.622c-0.157,0-0.261-0.104-0.261-0.261V26.93
			c0-0.104-0.052-0.157-0.156-0.157h-1.929c-0.104,0-0.156,0.052-0.156,0.157v6.801c0,0.157-0.104,0.261-0.261,0.261h-3.622
			c-0.157,0-0.26-0.104-0.26-0.261C98.646,33.731,98.646,16.532,98.646,16.532z"/>
		<path class="st0" d="M112.401,16.532c0-0.157,0.104-0.261,0.26-0.261h8.287c0.157,0,0.261,0.104,0.261,0.261v3.179
			c0,0.157-0.104,0.261-0.261,0.261H116.7c-0.104,0-0.156,0.052-0.156,0.157v2.918c0,0.104,0.052,0.157,0.156,0.157h3.649
			c0.156,0,0.26,0.104,0.26,0.261v3.179c0,0.157-0.104,0.261-0.26,0.261H116.7c-0.104,0-0.156,0.051-0.156,0.155v3.076
			c0,0.104,0.052,0.155,0.156,0.155h4.248c0.157,0,0.261,0.104,0.261,0.261v3.179c0,0.157-0.104,0.261-0.261,0.261h-8.287
			c-0.157,0-0.26-0.104-0.26-0.261V16.532z"/>
		<path class="st0" d="M127.538,16.532c0.052-0.157,0.13-0.261,0.313-0.261h4.04c0.182,0,0.286,0.104,0.313,0.261l3.805,17.199
			c0.052,0.183-0.052,0.261-0.209,0.261h-3.596c-0.183,0-0.286-0.104-0.313-0.261l-0.469-2.788h-3.153l-0.495,2.788
			c-0.026,0.157-0.104,0.261-0.287,0.261h-3.622c-0.157,0-0.234-0.104-0.208-0.261L127.538,16.532z M130.873,27.841l-0.964-5.758
			h-0.052l-1.043,5.758H130.873z"/>
		<path class="st0" d="M145.629,33.992c-0.183,0-0.287-0.078-0.339-0.234l-1.798-6.385h-0.6c-0.104,0-0.156,0.052-0.156,0.157v6.201
			c0,0.157-0.104,0.261-0.261,0.261h-3.622c-0.157,0-0.26-0.104-0.26-0.261V16.532c0-0.157,0.104-0.261,0.26-0.261h4.977
			c3.179,0,5.316,1.616,5.316,5.603c0,2.163-0.703,3.597-1.85,4.483l2.319,7.374c0.052,0.131,0,0.261-0.13,0.261H145.629z
			 M145.004,21.874c0-1.616-0.469-2.111-1.511-2.111h-0.6c-0.104,0-0.156,0.052-0.156,0.157v3.883c0,0.104,0.052,0.157,0.156,0.157
			h0.6C144.534,23.96,145.004,23.464,145.004,21.874z"/>
		<path class="st0" d="M155.082,33.992c-0.157,0-0.261-0.104-0.261-0.261V20.129c0-0.104-0.052-0.157-0.156-0.157h-2.919
			c-0.157,0-0.261-0.104-0.261-0.261v-3.179c0-0.157,0.104-0.261,0.261-0.261h10.293c0.157,0,0.26,0.104,0.26,0.261v3.179
			c0,0.157-0.104,0.261-0.26,0.261h-2.919c-0.104,0-0.157,0.052-0.157,0.157v13.602c0,0.157-0.104,0.261-0.26,0.261
			C158.703,33.992,155.082,33.992,155.082,33.992z"/>
		<g>
			<path class="st0" d="M168.206,29.312c-2.571,0-3.689-1.379-3.707-3.484c0-0.111,0.037-0.205,0.149-0.224l2.459-0.391
				c0.13-0.019,0.205,0.056,0.205,0.167c0.019,0.951,0.298,1.379,0.894,1.379c0.54,0,0.819-0.298,0.819-1.174
				c0-0.857-0.205-1.155-1.137-1.509l-0.764-0.298c-1.788-0.707-2.515-1.714-2.515-3.801c0-2.403,1.174-3.707,3.614-3.707
				c2.366,0,3.577,1.248,3.651,3.242c0,0.111-0.056,0.186-0.168,0.204l-2.347,0.355c-0.112,0.019-0.205-0.038-0.205-0.15
				c-0.019-0.745-0.298-1.099-0.82-1.099c-0.503,0-0.764,0.318-0.764,0.951c0,0.726,0.205,0.968,1.174,1.359l0.764,0.298
				c1.807,0.69,2.515,1.677,2.515,3.782C172.025,27.933,170.833,29.312,168.206,29.312z"/>
		</g>
		<g>
			<path class="st0" d="M171.958,33.994h-7.391c-0.139,0-0.252-0.113-0.252-0.252v-1.874c0-0.139,0.113-0.252,0.252-0.252h7.391
				c0.139,0,0.252,0.113,0.252,0.252v1.874C172.209,33.881,172.097,33.994,171.958,33.994z"/>
		</g>
	</g>
	<g>
		<path class="st0" d="M0.685,20.265c1.681,6.674,8.36,10.935,11.569,12.384c11.485,5.184,14.854,6.503,15.684,9.872
			c-3.711-2.93-6.262-2.322-16.595-6.451C5.045,33.553-2.297,27.271,0.685,20.265z"/>
		<path class="st0" d="M0.618,32.353c-0.569,2.256,0.973,6.165,4.532,8.308c3.13,1.885,9.491,1.96,13.246,1.269
			C11.428,41.615,3.124,36.695,0.618,32.353z"/>
		<path class="st0" d="M18.171,27.413c-3.735-1.986-15.418-8.761-15.418-15.664c-4.83,9.918,10.289,16.637,15.193,18.896
			c5.953,2.742,14.486,7.532,16.466,11.684C33.979,35.091,22.908,29.933,18.171,27.413z"/>
		<path class="st0" d="M35.398,34.255c-0.262-1.211-0.975-2.386-1.914-3.148c-0.506-0.41-0.379-1.212,0.223-1.459
			c1.299-0.533,2.372-1.013,2.849-0.08C37.409,31.238,35.398,34.255,35.398,34.255z"/>
		<path class="st0" d="M37.11,16.024c0.671,0.097,0.78,1.867,0.272,2.672c-0.989,1.567-1.041,2.917-0.039,4.231
			c0.924,1.211,1.078,2.533,0.571,3.637c-0.326-0.563-0.399-1.828-2.181-1.731c-1.027,0.056-4.016,2.193-5.673,2.283
			c-1.166,0.063-4.321-1.404-4.832-2.495c-0.111-0.238-0.043-0.309,0.273-0.238c0.705,0.159,3.048,1.065,4.075,1.009
			c1.493-0.081,6.184-2.445,6.086-4.255c-0.044-0.809-1.143-1.385-1.916-1.987c-0.651-0.506-2.342-1.526-1.734-2.247
			c0.508-0.603,2.622-0.246,3.58-0.298C36.607,16.55,36.524,15.94,37.11,16.024z"/>
		<path class="st0" d="M27.924,14.357c0.596-0.032-1.007-3.545-4.022-3.679c-2.082-0.093-2.441,0.316-4.13,0.027
			c0.066,1.213,1.562,2.754,3.007,2.863C26.264,13.829,27.382,14.386,27.924,14.357z"/>
		<path class="st0" d="M34.232,13.456c-0.512,0.028-2.237-1.875-2.912-2.542c-0.222-0.219-0.357-0.29-0.602-0.669
			c0.335,0,0.769-0.1,1.029-0.115c0.98-0.053,1.676,0.065,1.958,0.368C34.228,11.058,34.923,13.419,34.232,13.456z"/>
		<g>
			<path class="st0" d="M9.139,11.624C6.336,8.687,5.432,7.625,6.556,5.998c2.161-3.129,5.492,0.304,8.71-0.533
				c-3.148-1.039-6.532-4.629-10.065-2.11C1.367,6.089,4.138,10.591,9.139,11.624z"/>
		</g>
		<path class="st0" d="M22.176,0.627c-1.519-1.114-3.616-0.495-4.415-0.035c1.19,0.172,4.365,1.816,5.136,3.927
			C22.897,4.519,24.128,2.057,22.176,0.627z"/>
		<path class="st0" d="M16.538,1.901c-2.016-0.56-3.539-1.723-3.539-1.723s1.099,4.618,7.077,4.455
			C20.077,4.633,19.289,2.665,16.538,1.901z"/>
	</g>
</g>
</svg>
