<?xml version="1.0" encoding="utf-8"?>
<!-- Generator: Adobe Illustrator 24.2.3, SVG Export Plug-In . SVG Version: 6.00 Build 0)  -->
<svg version="1.1" xmlns="http://www.w3.org/2000/svg" xmlns:xlink="http://www.w3.org/1999/xlink" x="0px" y="0px"
	 viewBox="0 0 38.2 42.52" style="enable-background:new 0 0 38.2 42.52;" xml:space="preserve">
<style type="text/css">
	.st0{fill:#0064FF;}
</style>
<g id="Layer_1">
</g>
<g id="Isolation_Mode">
	<g>
		<path class="st0" d="M0.685,20.264c1.681,6.674,8.36,10.935,11.569,12.384c11.485,5.184,14.854,6.503,15.684,9.872
			c-3.711-2.93-6.262-2.322-16.595-6.451C5.045,33.553-2.296,27.271,0.685,20.264z"/>
		<path class="st0" d="M0.618,32.352c-0.569,2.256,0.973,6.165,4.532,8.308c3.13,1.885,9.491,1.96,13.246,1.269
			C11.428,41.614,3.124,36.694,0.618,32.352z"/>
		<path class="st0" d="M18.171,27.413c-3.735-1.986-15.418-8.761-15.418-15.664c-4.83,9.918,10.289,16.637,15.193,18.896
			c5.953,2.742,14.486,7.532,16.466,11.684C33.979,35.091,22.908,29.932,18.171,27.413z"/>
		<path class="st0" d="M35.398,34.254c-0.262-1.211-0.975-2.386-1.914-3.148c-0.506-0.41-0.379-1.212,0.223-1.459
			c1.299-0.533,2.372-1.013,2.849-0.08C37.409,31.237,35.398,34.254,35.398,34.254z"/>
		<path class="st0" d="M37.11,16.024c0.671,0.097,0.78,1.867,0.272,2.672c-0.989,1.567-1.041,2.917-0.039,4.231
			c0.924,1.211,1.078,2.533,0.571,3.637c-0.326-0.563-0.399-1.828-2.181-1.731c-1.027,0.056-4.016,2.193-5.673,2.283
			c-1.166,0.063-4.321-1.404-4.832-2.495c-0.111-0.238-0.043-0.309,0.273-0.238c0.705,0.159,3.048,1.065,4.075,1.009
			c1.493-0.081,6.184-2.445,6.086-4.255c-0.044-0.809-1.143-1.385-1.916-1.987c-0.651-0.506-2.342-1.526-1.734-2.247
			c0.508-0.603,2.622-0.246,3.58-0.298C36.607,16.55,36.524,15.939,37.11,16.024z"/>
		<path class="st0" d="M27.924,14.356c0.596-0.032-1.007-3.545-4.022-3.679c-2.082-0.093-2.441,0.316-4.13,0.027
			c0.066,1.213,1.562,2.754,3.007,2.863C26.264,13.829,27.382,14.386,27.924,14.356z"/>
		<path class="st0" d="M34.232,13.456c-0.512,0.028-2.237-1.875-2.912-2.542c-0.222-0.219-0.357-0.29-0.602-0.669
			c0.335,0,0.769-0.1,1.029-0.115c0.98-0.053,1.676,0.065,1.958,0.368C34.228,11.057,34.923,13.418,34.232,13.456z"/>
		<g>
			<path class="st0" d="M9.139,11.624C6.335,8.687,5.432,7.625,6.555,5.998c2.161-3.129,5.492,0.304,8.71-0.533
				C12.117,4.427,8.734,0.836,5.2,3.356C1.367,6.088,4.138,10.591,9.139,11.624z"/>
		</g>
		<path class="st0" d="M22.177,0.627c-1.519-1.114-3.616-0.495-4.415-0.035c1.19,0.172,4.365,1.816,5.136,3.927
			C22.897,4.518,24.128,2.057,22.177,0.627z"/>
		<path class="st0" d="M16.538,1.901c-2.016-0.56-3.539-1.723-3.539-1.723s1.099,4.618,7.077,4.455
			C20.077,4.633,19.289,2.665,16.538,1.901z"/>
	</g>
</g>
</svg>
