<svg height='100px' width='100px'  fill="#ffffff" xmlns="http://www.w3.org/2000/svg" xmlns:xlink="http://www.w3.org/1999/xlink" version="1.1" x="0px" y="0px" viewBox="0 0 66 66" enable-background="new 0 0 66 66" xml:space="preserve"><g><g><path d="M62.8,58.5H3.2c-0.5,0-1,0.5-1,1V64c0,0.6,0.4,1,1,1h59.6c0.5,0,1-0.4,1-1v-4.5C63.8,59,63.4,58.5,62.8,58.5z"></path></g><g><path d="M6.5,51.1v5.4h53.1v-5.4c0-0.6-0.5-1-1-1H7.5C6.9,50.1,6.5,50.6,6.5,51.1z"></path></g><g><path d="M19.2,48.9c0.6,0,1-0.4,1-1V27.1c0-0.5-0.4-1-1-1h-7.7c-0.5,0-1,0.5-1,1v20.8c0,0.6,0.5,1,1,1H19.2z"></path></g><g><path d="M36.3,48.9c0.6,0,1-0.4,1-1V27.1c0-0.5-0.4-1-1-1h-7.7c-0.6,0-1,0.5-1,1v20.8c0,0.6,0.4,1,1,1H36.3z"></path></g><g><path d="M53.4,48.9c0.6,0,1-0.4,1-1V27.1c0-0.5-0.4-1-1-1h-7.7c-0.5,0-1,0.5-1,1v20.8c0,0.6,0.5,1,1,1H53.4z"></path></g><g><path d="M58.5,22.7H7.5c-0.6,0-1,0.5-1,1c0,0.5,0.4,1,1,1h51.1c0.5,0,1-0.5,1-1C59.5,23.1,59.1,22.7,58.5,22.7z"></path></g><g><path d="M3.2,21.3h59.6c0.5,0,0.8-0.3,1-0.7c0.1-0.4-0.1-0.9-0.4-1.1L33.5,1.1c-0.3-0.2-0.7-0.2-1.1,0L2.7,19.4    c-0.4,0.2-0.6,0.7-0.4,1.1C2.3,21,2.7,21.3,3.2,21.3z M33,7.4c2.7,0,4.9,2.2,4.9,4.9c0,2.7-2.2,4.9-4.9,4.9    c-2.7,0-4.9-2.2-4.9-4.9C28.1,9.5,30.3,7.4,33,7.4z"></path></g></g></svg>