<svg height='100px' width='100px'  fill="#ffffff" xmlns="http://www.w3.org/2000/svg" xmlns:xlink="http://www.w3.org/1999/xlink" version="1.1" x="0px" y="0px" viewBox="0 0 24 24" style="enable-background:new 0 0 24 24;" xml:space="preserve"><g><path d="M12,0C5.373,0,0,5.373,0,12c0,6.628,5.373,12,12,12s12-5.372,12-12C24,5.373,18.627,0,12,0z M12,22C6.486,22,2,17.515,2,12   C2,6.486,6.486,2,12,2c5.514,0,10,4.486,10,10C22,17.515,17.514,22,12,22z"></path><polygon points="13.664,10 12,5 10.336,10 5,10 9.308,13.235 7.674,18.315 12,15.191 16.326,18.315 14.692,13.235 19,10  "></polygon></g></svg>